<svg xmlns="http://www.w3.org/2000/svg" viewBox="0 0 190.19 71.5"><defs><style>.cls-1{fill:#27255d;}</style></defs><title>logo</title><g id="Capa_2" data-name="Capa 2"><g id="Capa_1-2" data-name="Capa 1"><path class="cls-1" d="M65.21,26.1c0,3.5,0,7-.12,10.51A28.19,28.19,0,0,1,64.67,42a11.75,11.75,0,0,1-7.55,8.94,19,19,0,0,1-8.32,1.18,17.41,17.41,0,0,1-5.95-1.3,11.68,11.68,0,0,1-7.24-8.7,24.29,24.29,0,0,1-.42-4.67q-.12-9.36-.1-18.73c0-2.37.09-4.74.31-7.1A11.7,11.7,0,0,1,43.24,1.19,18.56,18.56,0,0,1,50.77,0a17.65,17.65,0,0,1,6.57,1.3,11.74,11.74,0,0,1,7.31,8.78,16.15,16.15,0,0,1,.33,3c.09,3.07.14,6.14.19,9.2,0,1.28,0,2.56,0,3.84Zm-17.12,0h0c0,4.29,0,8.58,0,12.86a25.52,25.52,0,0,0,.27,3.38,1.4,1.4,0,0,0,1.51,1.27,1.58,1.58,0,0,0,1.84-1.11A5,5,0,0,0,52,41.25c.07-1.6.15-3.21.16-4.81q0-11,0-22c0-.93,0-1.86,0-2.78a17.33,17.33,0,0,0-.25-1.9A1.4,1.4,0,0,0,51,8.66a1.86,1.86,0,0,0-2.64,1.22c0,.23-.1.45-.12.67-.07,1-.16,2.06-.17,3.08C48.08,17.8,48.09,22,48.09,26.12Z"/><path class="cls-1" d="M118.68,42.13H114L113.26,51c-.49.12-12.81.14-13.46,0Q103.12,26,106.43,1.08h18.82Q129,26,132.69,51H119.38Zm-2.39-29.35c-.92,6.84-1.84,13.58-2.41,20.39h4.37c-.62-6.72-1.22-13.4-1.83-20.08A1.74,1.74,0,0,0,116.29,12.78Z"/><path class="cls-1" d="M17.76,31h13c0,.73,0,1.43,0,2.12-.07,1.92-.1,3.83-.24,5.74a39.13,39.13,0,0,1-.59,4,9,9,0,0,1-2.72,4.83,14.78,14.78,0,0,1-8.59,4.14,22.54,22.54,0,0,1-9.56-.64,15.29,15.29,0,0,1-3-1.23,10,10,0,0,1-5.27-7,32.17,32.17,0,0,1-.72-5.44C.06,35.88,0,34.13,0,32.38,0,27.26,0,22.15,0,17A56.05,56.05,0,0,1,.4,10.69,11.13,11.13,0,0,1,5,3,14.23,14.23,0,0,1,11.09.4,22.58,22.58,0,0,1,21.8.94a14,14,0,0,1,4.56,2.43,10.31,10.31,0,0,1,3.85,6.69,45.14,45.14,0,0,1,.57,6.77c0,1.81,0,3.63,0,5.44v.53h-13v-.72c0-2.68,0-5.36,0-8,0-1.19-.08-2.39-.17-3.58C17.47,9,16.81,8.32,15,8.52a1.7,1.7,0,0,0-1.62,1.53c-.15,1.1-.23,2.21-.3,3.32-.05.72,0,1.44,0,2.16C13,23,13,30.38,13,37.8c0,1.23.13,2.46.2,3.7a2.7,2.7,0,0,0,.09.48,2.17,2.17,0,0,0,3.29,1.38,1.72,1.72,0,0,0,.81-1.26,15.81,15.81,0,0,0,.26-2.26c0-2.68,0-5.36.07-8Z"/><path class="cls-1" d="M69.37,33.19H81.44v.67c0,1.92,0,3.84,0,5.75a14.93,14.93,0,0,0,.25,2.58,1.65,1.65,0,0,0,1.69,1.43A2.25,2.25,0,0,0,86,41.86a6,6,0,0,0,.25-1.33A18.26,18.26,0,0,0,86,36a4.46,4.46,0,0,0-1.73-3c-1.78-1.27-3.55-2.54-5.34-3.8s-3.34-2.34-5-3.51a11.36,11.36,0,0,1-4.7-7.85,26.54,26.54,0,0,1,.23-9.65,9,9,0,0,1,4.6-6.2A15.24,15.24,0,0,1,79.86.21a26.24,26.24,0,0,1,8,.23,16.62,16.62,0,0,1,5.36,2,7.79,7.79,0,0,1,4,5.82,34.83,34.83,0,0,1,.4,5.3c0,.84,0,1.68,0,2.51-.47.15-11.15.19-12.09.05,0-.2,0-.42,0-.64,0-1.57,0-3.13-.08-4.7a5.71,5.71,0,0,0-.25-1.27,1.33,1.33,0,0,0-.93-.91A2.07,2.07,0,0,0,81.6,9.71a4.76,4.76,0,0,0-.38,1.3,11.16,11.16,0,0,0,.11,3.69,4,4,0,0,0,1.51,2.61,28.38,28.38,0,0,0,2.58,1.8,77.88,77.88,0,0,1,6.91,4.57c.77.59,1.5,1.23,2.24,1.86a10.8,10.8,0,0,1,3.48,6.05,33.66,33.66,0,0,1,.62,7.69,23.41,23.41,0,0,1-.63,5.2,7.69,7.69,0,0,1-2.91,4.39,15.29,15.29,0,0,1-6.46,2.82,22.32,22.32,0,0,1-10.59-.41,14.72,14.72,0,0,1-3.86-1.78,9.22,9.22,0,0,1-4.28-6.24,32.13,32.13,0,0,1-.59-5.52c0-1.36,0-2.73,0-4.09A4.07,4.07,0,0,1,69.37,33.19Z"/><path class="cls-1" d="M162.45,16.16H150.37c0-.26,0-.48,0-.7,0-1.55,0-3.09-.08-4.64a5.69,5.69,0,0,0-.21-1.21,1.44,1.44,0,0,0-1.11-1,2,2,0,0,0-2.48,1.11,4.85,4.85,0,0,0-.4,1.36,11.49,11.49,0,0,0,.09,3.56,4.19,4.19,0,0,0,1.63,2.82c.81.6,1.65,1.17,2.49,1.72,2,1.28,4,2.51,5.91,3.84,1.1.75,2.12,1.64,3.15,2.5a10.79,10.79,0,0,1,3.56,6.14,33.1,33.1,0,0,1,.62,7.56,24,24,0,0,1-.62,5.27A7.7,7.7,0,0,1,160,48.88a15.42,15.42,0,0,1-6.46,2.82A22.38,22.38,0,0,1,143,51.29a14.63,14.63,0,0,1-3.91-1.81,9.2,9.2,0,0,1-4.26-6.18,32,32,0,0,1-.59-5.52c0-1.36,0-2.72,0-4.08,0-.16,0-.32,0-.52h12.07v.7c0,1.92,0,3.84,0,5.75a15.26,15.26,0,0,0,.25,2.52,1.67,1.67,0,0,0,1.78,1.47A2.2,2.2,0,0,0,150.84,42a5.55,5.55,0,0,0,.28-1.32,17.92,17.92,0,0,0-.26-4.74,4.38,4.38,0,0,0-1.72-2.84c-1.73-1.24-3.45-2.48-5.18-3.7s-3.28-2.3-4.93-3.43A11.43,11.43,0,0,1,134.12,18a26.23,26.23,0,0,1,.31-10.14,8.7,8.7,0,0,1,3.94-5.47,14,14,0,0,1,5.4-2.05,24.72,24.72,0,0,1,10.55.46,15.86,15.86,0,0,1,3.74,1.6,7.82,7.82,0,0,1,4,5.86,35.13,35.13,0,0,1,.4,5.42C162.46,14.5,162.45,15.3,162.45,16.16Z"/><path class="cls-1" d="M188.74,30.08h-8.07V41c1,0,2.07,0,3.11,0h6.29c.14.51.17,9.27,0,10H167.65V1.1h21.63v10h-8.55c-.13.48-.15,8.71,0,9.47h8Z"/><path class="cls-1" d="M168.24,58.78V55.69h3.36c.12.46.16,13,0,13.8h-3.36l-.09-.65-.56.38a2.65,2.65,0,0,1-3,.11,1.9,1.9,0,0,1-.88-1.42c0-.24-.06-.49-.06-.74,0-2.33,0-4.65,0-7a2.28,2.28,0,0,1,3-2.18,2.93,2.93,0,0,1,.75.27A7.29,7.29,0,0,1,168.24,58.78Zm0,5c0-.94,0-1.89,0-2.84a2.91,2.91,0,0,0-.1-.72.36.36,0,0,0-.48-.27.62.62,0,0,0-.38.33,2.24,2.24,0,0,0-.07.73c0,1.83,0,3.66,0,5.5a3,3,0,0,0,.07.79.67.67,0,0,0,.38.34.37.37,0,0,0,.47-.29,4.13,4.13,0,0,0,.11-.85C168.23,65.64,168.23,64.74,168.23,63.83Z"/><path class="cls-1" d="M186.18,58.77V55.7h3.44V69.49h-3.38l-.1-.67-.49.36a2.63,2.63,0,0,1-2.46.42,1.94,1.94,0,0,1-1.46-1.8c0-.54-.06-1.07-.06-1.61,0-2,.06-3.91,0-5.87,0-2.33,2.33-2.79,3.71-2C185.64,58.4,185.85,58.56,186.18,58.77Zm-1,5.06v2.84a2.19,2.19,0,0,0,.06.68.65.65,0,0,0,.37.34.38.38,0,0,0,.48-.28,2.11,2.11,0,0,0,.1-.61c0-2,0-4,0-6a2,2,0,0,0-.09-.54.4.4,0,0,0-.49-.28.69.69,0,0,0-.38.33,1.55,1.55,0,0,0-.06.61Z"/><path class="cls-1" d="M138.89,58.81l.21-.61h3.2a2.55,2.55,0,0,1,0,.34c0,3.21,0,6.43,0,9.64,0,.21,0,.41,0,.62a2.43,2.43,0,0,1-1.45,2.14,4.74,4.74,0,0,1-1.22.41,7.74,7.74,0,0,1-3.25,0c-1.4-.33-1.94-1-2-2.59h3.27c.05.15.1.28.15.41a.55.55,0,0,0,1.05-.09c0-.47.06-.94.09-1.51-.22.12-.36.19-.48.27a3,3,0,0,1-2.44.33,2,2,0,0,1-1.56-1.72,9.26,9.26,0,0,1-.11-1.17c0-1.42,0-2.85,0-4.27a6.38,6.38,0,0,1,.09-1A2.16,2.16,0,0,1,137.37,58,9.89,9.89,0,0,1,138.89,58.81Zm-.07,4.2h0V62.7c0-.74,0-1.48-.06-2.22,0-.29-.12-.5-.43-.5a.48.48,0,0,0-.48.47,4.36,4.36,0,0,0-.07.62v4.14a1.65,1.65,0,0,0,.1.67.56.56,0,0,0,.39.3.65.65,0,0,0,.42-.28,1,1,0,0,0,.08-.48C138.82,64.61,138.82,63.81,138.82,63Z"/><path class="cls-1" d="M49.14,58.2V59l.55-.45a2.53,2.53,0,0,1,3.1-.1,1.66,1.66,0,0,1,.71,1.18c0,.53.1,1.07.1,1.6,0,1.85,0,3.71,0,5.56a7.94,7.94,0,0,1-.12,1.29,1.81,1.81,0,0,1-1.28,1.52,2.54,2.54,0,0,1-2.51-.42l-.55-.48v2.44H45.74c-.12-.46-.15-12.17,0-12.92Zm1,5.68h0c0-1,0-2,0-3a3.31,3.31,0,0,0,0-.55.38.38,0,0,0-.39-.33.44.44,0,0,0-.49.31,1.91,1.91,0,0,0-.06.48v6.12a2.19,2.19,0,0,0,0,.36.46.46,0,0,0,.49.45.42.42,0,0,0,.44-.42,3.52,3.52,0,0,0,0-.56Z"/><path class="cls-1" d="M108.43,69.5h-3.37c-.13-.48-.15-10.65,0-11.31h3.39l0,.73.16.12c0-.1.05-.22.12-.29a2.44,2.44,0,0,1,2.36-.76,1.93,1.93,0,0,1,1.72,1.69,7.6,7.6,0,0,1,.1,1.35q0,4,0,8c0,.12,0,.24,0,.35a13.17,13.17,0,0,1-3.44,0v-.64c0-2.58,0-5.15,0-7.73,0-.23,0-.45,0-.68a.41.41,0,0,0-.4-.4.42.42,0,0,0-.5.35,6.91,6.91,0,0,0-.08,1.11q0,3.68,0,7.36Z"/><path class="cls-1" d="M148,58.19h3.38c.13.46.18,9.93.07,11.23a14.74,14.74,0,0,1-3.47.06l-.06-.7-.21.2a2.57,2.57,0,0,1-2.85.58A1.8,1.8,0,0,1,143.6,68a14.24,14.24,0,0,1-.1-1.85c0-2.51,0-5,0-7.54a2.64,2.64,0,0,1,0-.29,13.63,13.63,0,0,1,3.45-.06v.65q0,3.54,0,7.1c0,.43,0,.86.06,1.3a.43.43,0,0,0,.49.44c.3,0,.43-.19.45-.48s.05-.7.05-1v-8Z"/><path class="cls-1" d="M83.44,63.81c0,.87,0,1.73,0,2.6a3.18,3.18,0,0,1-3.07,3.26A9.11,9.11,0,0,1,78,69.58,2.65,2.65,0,0,1,75.66,67a29.59,29.59,0,0,1,0-6.17,3,3,0,0,1,2.67-2.82,5.31,5.31,0,0,1,3.33.36A2.93,2.93,0,0,1,83.43,61C83.49,62,83.45,62.88,83.44,63.81ZM80,63.9c0-.93,0-1.85,0-2.78a6,6,0,0,0,0-.73.39.39,0,0,0-.39-.4.4.4,0,0,0-.47.38,5.29,5.29,0,0,0-.08.79q0,2.69,0,5.37a2.72,2.72,0,0,0,.11.85.56.56,0,0,0,.39.31.36.36,0,0,0,.43-.34,3.82,3.82,0,0,0,0-.68C80,65.75,80,64.82,80,63.9Z"/><path class="cls-1" d="M8.65,64V61.58a3.91,3.91,0,0,1,.06-.68A3.12,3.12,0,0,1,11.61,58a5.35,5.35,0,0,1,3,.33,3,3,0,0,1,1.9,2.54c.06.63.08,1.27.08,1.91,0,1.26,0,2.52-.09,3.77a3.13,3.13,0,0,1-2.94,3.11,6.77,6.77,0,0,1-2.65-.12,2.61,2.61,0,0,1-2.11-2.24A22.42,22.42,0,0,1,8.63,65c0-.33,0-.66,0-1Zm3.46-.17v2.84a3.78,3.78,0,0,0,.05.67.42.42,0,0,0,.43.37.4.4,0,0,0,.43-.36,6,6,0,0,0,.08-.73V61.12a2.9,2.9,0,0,0-.1-.79.6.6,0,0,0-.37-.34.38.38,0,0,0-.46.32,3.79,3.79,0,0,0-.06.67Z"/><path class="cls-1" d="M180.57,69.49h-3.3l-.11-.7c-.09.07-.17.1-.21.16a2.59,2.59,0,0,1-3.47.23,1.63,1.63,0,0,1-.63-1.23c0-.93,0-1.85,0-2.78a1.4,1.4,0,0,1,.81-1.23c.46-.23.93-.45,1.4-.66s1-.43,1.48-.63a.83.83,0,0,0,.57-.85,10.09,10.09,0,0,0-.07-1.35.49.49,0,0,0-.55-.47c-.3,0-.4.26-.42.53s0,.57,0,.86,0,.73,0,1.19h-3.22a6.34,6.34,0,0,1,.28-2.82,2.66,2.66,0,0,1,1.52-1.39,5.57,5.57,0,0,1,4.28,0,2.41,2.41,0,0,1,1.59,2.24c.06.94.1,1.89.11,2.84,0,1.87,0,3.75,0,5.62C180.6,69.17,180.58,69.31,180.57,69.49Zm-3.48-5.2-.13-.08a3.76,3.76,0,0,0-.74.87,3.8,3.8,0,0,0-.09,2.24.48.48,0,0,0,.66.36c.27-.11.29-.35.3-.57C177.1,66.17,177.09,65.23,177.09,64.29Z"/><path class="cls-1" d="M103.83,64.06H99.45c0,.1-.09.16-.09.21,0,1,0,1.94,0,2.9,0,.37.19.53.48.54a.55.55,0,0,0,.57-.46,3.45,3.45,0,0,0,.07-.55c0-.41,0-.83,0-1.24v-.65h3.29a6.58,6.58,0,0,1-.25,2.79,3.1,3.1,0,0,1-2.4,2,6,6,0,0,1-3-.15A2.93,2.93,0,0,1,96,66.67c-.07-1.81-.09-3.62,0-5.43A3.09,3.09,0,0,1,98.88,58a5.34,5.34,0,0,1,2.45.16,3.17,3.17,0,0,1,2.33,2.48A15.85,15.85,0,0,1,103.83,64.06Zm-3.45-1.91c0-.63-.06-1.2-.1-1.76a.44.44,0,0,0-.88,0c0,.56,0,1.13,0,1.73Z"/><path class="cls-1" d="M62.58,64.05H58.15c0,.21,0,.37,0,.53,0,.84,0,1.69,0,2.53,0,.43.19.59.48.6s.54-.17.6-.58A11.46,11.46,0,0,0,59.29,66c0-.37,0-.74,0-1.15h3.28a6.78,6.78,0,0,1-.23,2.73A3.07,3.07,0,0,1,60,69.6a5.89,5.89,0,0,1-3.35-.23,3,3,0,0,1-1.91-2.46,8.76,8.76,0,0,1-.1-1.35c0-1.49,0-3,.07-4.45A3.12,3.12,0,0,1,57.9,58a6.4,6.4,0,0,1,1.9.11,3.15,3.15,0,0,1,2.63,2.62A15.2,15.2,0,0,1,62.58,64.05Zm-3.45-1.9c0-.64-.05-1.21-.09-1.78a.41.41,0,0,0-.47-.39.39.39,0,0,0-.4.38,6.31,6.31,0,0,0,0,1.79Z"/><path class="cls-1" d="M133.4,64h-4.48a3.06,3.06,0,0,0-.06.46v2.22a3.43,3.43,0,0,0,0,.56.47.47,0,0,0,.46.42.51.51,0,0,0,.57-.37,3.19,3.19,0,0,0,.08-.61c0-.63,0-1.27.06-1.93h3.26a6.12,6.12,0,0,1-.49,3.3,3.22,3.22,0,0,1-2.39,1.57,6.41,6.41,0,0,1-2.58-.12,3,3,0,0,1-2.43-3c-.08-1.78-.09-3.58,0-5.37A3.06,3.06,0,0,1,128.25,58a5.34,5.34,0,0,1,2.69.16,3,3,0,0,1,2.24,2.61C133.32,61.84,133.32,62.89,133.4,64Zm-3.53-1.9c0-.62-.05-1.2-.1-1.79a.38.38,0,0,0-.41-.37.41.41,0,0,0-.46.4c0,.59,0,1.17,0,1.76Z"/><path class="cls-1" d="M36.89,64.05H32.48a2.91,2.91,0,0,0-.06.46v2.16c0,.2,0,.41,0,.61a.44.44,0,0,0,.46.42.51.51,0,0,0,.54-.32,1.57,1.57,0,0,0,.09-.48c0-.47,0-1,0-1.42v-.69h3.27a7,7,0,0,1-.22,2.75,3.14,3.14,0,0,1-2.35,2.06,6,6,0,0,1-2.88-.07,3,3,0,0,1-2.43-3c-.07-1.79-.08-3.59,0-5.37A3,3,0,0,1,31.82,58a5.25,5.25,0,0,1,2.75.18,3.15,3.15,0,0,1,2.18,2.53A17,17,0,0,1,36.89,64.05Zm-3.48-1.89c0-.22,0-.38,0-.54,0-.43,0-.86-.08-1.29A.39.39,0,0,0,32.9,60a.41.41,0,0,0-.43.36,9.23,9.23,0,0,0,0,1.82Z"/><path class="cls-1" d="M84.49,65.54h3c0,.25,0,.47,0,.69s0,.69.09,1a.48.48,0,0,0,.51.44.51.51,0,0,0,.58-.45,4.54,4.54,0,0,0,0-1.22.91.91,0,0,0-.41-.5c-.56-.36-1.14-.67-1.7-1s-.84-.53-1.24-.82a2.15,2.15,0,0,1-.84-1.33,5.57,5.57,0,0,1,.08-2.69,1.87,1.87,0,0,1,1.11-1.26,5.46,5.46,0,0,1,4.72,0,2.09,2.09,0,0,1,1.29,1.89c0,.45,0,.9,0,1.39h-3c0-.34,0-.68,0-1,0-.57-.16-.76-.51-.77s-.55.27-.59.79a1.39,1.39,0,0,0,.75,1.44l1.3.71,1.18.67a2.39,2.39,0,0,1,1.19,2,12.16,12.16,0,0,1-.12,2.09,2.07,2.07,0,0,1-1.29,1.63,5.56,5.56,0,0,1-4.78-.15,2,2,0,0,1-1.11-1.42A6.31,6.31,0,0,1,84.49,65.54Z"/><path class="cls-1" d="M117,65.54h3.12c0,.26,0,.5,0,.74a9.3,9.3,0,0,0,.09,1,.45.45,0,0,0,.49.38c.27,0,.54-.1.56-.38a5.54,5.54,0,0,0,0-1.35c0-.18-.26-.36-.44-.47-.54-.34-1.11-.65-1.65-1-.37-.22-.73-.46-1.09-.7A2.29,2.29,0,0,1,117,62a12.19,12.19,0,0,1,.09-2.09,1.8,1.8,0,0,1,1.1-1.47,5.38,5.38,0,0,1,4.88.06,2.08,2.08,0,0,1,1.2,1.95v1.27h-3c0-.13,0-.29,0-.44s0-.58,0-.87a.45.45,0,0,0-.42-.46.53.53,0,0,0-.59.35,1.53,1.53,0,0,0,.38,1.64c.41.3.88.53,1.32.79s1,.55,1.5.86a2.31,2.31,0,0,1,1.15,2.06,12.82,12.82,0,0,1-.12,2,2.06,2.06,0,0,1-1.33,1.67,5.53,5.53,0,0,1-4.72-.16,2,2,0,0,1-1.14-1.53C117.12,67,117.09,66.28,117,65.54Z"/><path class="cls-1" d="M24.76,61.77H21.67c0-.41,0-.8,0-1.18s-.15-.6-.45-.61a.57.57,0,0,0-.61.57,1.43,1.43,0,0,0,.66,1.6c.44.26.9.49,1.35.75s.93.52,1.38.81a2.1,2.1,0,0,1,1,1.64,13.23,13.23,0,0,1-.09,2.27,2,2,0,0,1-1.31,1.68,5.53,5.53,0,0,1-4.78-.17,2.09,2.09,0,0,1-1.11-1.48,7.36,7.36,0,0,1-.11-2.1h3l0,.65c0,.35,0,.7.07,1a.56.56,0,0,0,1.1,0,4.16,4.16,0,0,0,0-1.17,1,1,0,0,0-.44-.54c-.54-.35-1.11-.65-1.65-1s-.77-.48-1.14-.73a2.29,2.29,0,0,1-1-1.82,11.5,11.5,0,0,1,.08-2,1.88,1.88,0,0,1,1.15-1.51,5.4,5.4,0,0,1,4.83.07,2.1,2.1,0,0,1,1.21,2C24.75,60.91,24.76,61.3,24.76,61.77Z"/><path class="cls-1" d="M40.32,69.49H37.41c.22-.88.43-1.72.63-2.55.25-1,.48-2,.75-2.93a1.5,1.5,0,0,0,0-.84c-.4-1.45-.8-2.9-1.19-4.35,0-.19-.09-.39-.15-.63h2.88l.7,3.48h.09l.68-3.49c1-.06,2,0,3.09,0-.09.39-.15.71-.23,1-.33,1.29-.65,2.59-1,3.88a1.9,1.9,0,0,0,0,1c.51,1.76,1,3.53,1.49,5.29a11.69,11.69,0,0,1-3.36.06l-.7-3.39H41Z"/><path class="cls-1" d="M5.78,66.76H7.92v2.67a45.65,45.65,0,0,1-5.67.06c-.14-.42-.19-12.77-.06-13.73a16.62,16.62,0,0,1,3.57,0c0,.72,0,1.45,0,2.18v8.86Z"/><path class="cls-1" d="M74.12,67.58l.89.16v1.77a13.84,13.84,0,0,1-3.16-.11,1.57,1.57,0,0,1-1.3-1.59c0-1.71-.06-3.42-.07-5.13,0-.78,0-1.56,0-2.37l-.7-.14V58.49l.69-.1V56.67h3.48v1.71l.91.09v1.72l-.77.08A49.67,49.67,0,0,0,74.12,67.58Z"/><path class="cls-1" d="M152.81,58.19h3.33v1.09c1.11-1.15,1.2-1.2,2.09-1.3v3.94l-.78.11a1.23,1.23,0,0,0-1.2,1.32c0,.74,0,1.48,0,2.22,0,1.1,0,2.19,0,3.28v.64h-3.38C152.7,69,152.67,58.91,152.81,58.19Z"/><path class="cls-1" d="M69.19,58v4l-.7.1a1.27,1.27,0,0,0-1.26,1.4c0,.53,0,1.07,0,1.61V69.4a13,13,0,0,1-3.38.08c-.13-.45-.18-10-.07-11.21a14.05,14.05,0,0,1,3.4,0l-.05,1.09c.33-.34.59-.66.9-.92A1.84,1.84,0,0,1,69.19,58Z"/><path class="cls-1" d="M159.08,58.19h3.46v11.3H159.1C159,69,158.94,58.82,159.08,58.19Z"/><path class="cls-1" d="M159,57.44V55.69h3.51v1.75Z"/></g></g></svg>